# xmcd
#
# Track frame offsets:
#	182
#	17327
#	29752
#	51792
#	62900
#	80320
#	95582
#	114485
#	127572
#	140422
#
# Disc length: 2213 seconds
#
# Revision: 5
# Processed by: cddbd v1.5.2PL0 Copyright (c) Steve Scherf et al.
# Submitted via: audiograbber 1.83.01
#
DISCID=7a08a30a
DTITLE=Various Artist - New Country - Interview 1995
DYEAR=1995
DGENRE=Country
TTITLE0=Forbes Family - I'll Face Nobody's Record But Mine
TTITLE1=Laurel Canyon Ramblers - Rambler's Blues
TTITLE2=Joe Ely - Run Preciosa
TTITLE3=The Beat Farmers - Texas Heat
TTITLE4=Stacy Dean Campbell - Hurt City
TTITLE5=The Country Gentlemen - Mountains And Memories
TTITLE6=Tim O'Brien - She's Runnin' Away
TTITLE7=The Eddie Adcock Band - Dog
TTITLE8=The Holy Cows - Hate The Phone
TTITLE9=Betty Elders - Roll On New River
EXTD=
EXTT0=FORBES FAMILY
EXTT1=LAUREL CANYON RAMBLERS
EXTT2=JOE ELY
EXTT3=THE BEAT FARMERS
EXTT4=STACY DEAN CAMPBELL
EXTT5=COUNTRY GENTLEMAN
EXTT6=TIM O'BRIEN
EXTT7=THE EDDIE ADCOCK BAND
EXTT8=THE HOLY COWS
EXTT9=BETTY ELDERS
PLAYORDER=
